<?xml version="1.0" encoding="utf-8"?>
<!-- Generator: Adobe Illustrator 24.2.0, SVG Export Plug-In . SVG Version: 6.00 Build 0)  -->
<svg version="1.1" id="Layer_1" xmlns="http://www.w3.org/2000/svg" xmlns:xlink="http://www.w3.org/1999/xlink" x="0px" y="0px"
	 viewBox="0 0 115 85" style="enable-background:new 0 0 115 85;" xml:space="preserve">
<style type="text/css">
	.st0{fill:#FFFFFF;}
</style>
<g>
	<path class="st0" d="M113.2,46l-0.5-0.6c-0.2-0.2-0.3-0.2-0.5,0.1c-1.1,1.5-2.6,2.3-3.8,2.3c-0.7,0-1.4-0.5-1.4-1.9v-0.2
		c2.5-0.5,5.2-1.8,5.2-5.8c0-1.3-0.8-2.5-2.6-2.5c-3.1,0-5.4,4.8-5.6,8c-0.8,1.2-1.9,2.3-2.6,2.3c-0.4,0-0.6-0.4-0.6-1.1
		c0-0.5,0.1-1,0.3-1.8l1.1-4.7c0.1-0.5,0.2-1,0.3-1.4c0.6-0.2,1.2-0.3,1.8-0.5c0.1-0.1,0.3-0.2,0.4-0.3l0.8-1
		c0.2-0.3,0.2-0.4,0.2-0.6c0-0.2-0.2-0.2-0.2-0.1c-0.8,0.3-1.6,0.4-2.3,0.5c0.4-1,0.8-1.7,1.5-3.1c0.1-0.2,0-0.3,0-0.4l0,0
		c-0.1-0.1,0-0.2-0.2-0.2l-2.8,0.8c-0.1,0.1-0.3,0.2-0.3,0.3c-0.5,1.2-0.7,1.9-1,2.6c-0.3,0-0.6-0.1-0.9-0.1c-0.1,0-0.3,0.1-0.3,0.2
		l-0.7,2c-0.1,0.3,0,0.4,0.2,0.4c0.3,0,0.7,0,1.1-0.1l-0.2,1.1l-0.8,3.3c0,0,0,0,0,0.1c-1,2.4-2.1,3.9-2.8,3.9
		c-0.4,0-0.6-0.2-0.6-0.7c0-0.3,0.1-0.7,0.2-1.2l0.8-3.1c0.5-1.9,0.9-3.7,1.4-4.9c0.2-0.5,0.2-0.6,0.2-0.7c0-0.1-0.1-0.2-0.3-0.2
		l-2.1,0.5c-0.3,0.1-0.7,0.1-0.8,0.4L94.5,38c-0.4-0.5-0.9-0.6-1.4-0.6c-2.6,0-4.9,4.3-5.5,7.7c-1.2,1.7-2.6,2.5-3.3,2.5
		c-0.4,0-0.5-0.3-0.5-0.7c0-0.5,0.2-1.3,0.6-2.8c0-0.2,0.1-0.3,0.2-0.5c4.2-7.4,4.8-9.6,4.8-11.3c0-1.3-0.9-1.9-1.8-1.9
		c-1.8,0-3.1,1.9-5.1,10l-0.4,1.7c-0.8,3.2-1,4-1,4.9c0,1.7,0.7,2.8,2.2,2.8c1.5,0,2.9-1,4.1-2.4c0.2,1.5,1,2.4,2.3,2.4
		c0.9,0,2-0.6,2.8-2c0.2,1,0.7,1.7,1.5,1.9c0.2,0.1,0.4,0.1,0.6,0.1c1.3,0,2.4-0.9,3.3-2.3c0.1,1.5,0.7,2.3,2.2,2.3
		c1.5,0,2.9-0.9,4-2.3c0.4,1.4,1.4,2.3,3.2,2.3c2.1,0,4.2-1.4,5.7-3.3C113.3,46.3,113.3,46.2,113.2,46z M109.2,39.2
		c0.3,0,0.6,0.3,0.6,1.3c0,1.3-0.2,2.4-2.6,3.3C107.5,41.7,108.3,39.2,109.2,39.2z M85.9,37.8c1.2-4.8,1.6-5.4,1.8-5.4
		c0.2,0,0.3,0.2,0.3,0.6c0,1.2-1,3.9-2.8,7.8c0,0.1-0.1,0-0.1,0L85.9,37.8z M94.2,39.5l-1,4L93.1,44c-0.5,2-1.4,3.7-2.1,3.7
		c-0.2,0-0.4-0.3-0.4-0.9c0-2.1,1.5-7.7,3.2-7.7C93.9,39.1,94.1,39.2,94.2,39.5L94.2,39.5z"/>
	<path class="st0" d="M68.4,35.5L66,36.2c-0.1,0-0.3,0.1-0.4,0.3l-4.5,7.9c-0.4,0.6-0.7,1.4-0.8,1.8c-0.7,1-1.3,1.5-1.8,1.5
		c-0.4,0-0.6-0.2-0.6-0.7c0-0.3,0.1-0.7,0.2-1.1l1.3-4.4l0.9-3.5c0.1-0.5,0-0.7-0.3-0.7l-2.3,0.5c-0.1,0-0.3,0.1-0.3,0.3l-0.9,3.3
		l-1,3.2c-0.5,1.4-1.3,2.9-2.1,2.9c-0.4,0-0.5-0.3-0.5-0.8c0-0.6,0.2-1.3,0.5-2.3l2-6.4c0.2-0.5,0-0.7-0.4-0.7l-2.4,0.5
		c-0.1,0-0.3,0.1-0.3,0.3l-1.6,5.5c-0.1,0.3-0.2,0.6-0.3,0.9c-1.1,1.8-2.6,2.6-4.7,3.2c-0.1,0-0.1,0,0-0.1c2.2-1.9,2.7-5.1,2.7-7.1
		c0-1.6-0.8-2.7-2.2-2.7c-0.9,0-1.7,0.2-2.4,0.9c0.7-2.3,1.1-3.2,1.6-4c0.1-0.1,0-0.3,0-0.5c0-0.1-0.2-0.2-0.3-0.1l-2.3,1
		c-0.2,0.1-0.3,0.3-0.3,0.3c-0.7,1.3-1.3,2.9-2.2,6.2l-0.6,2.1l-0.1,0.2c-1.1,2.3-2.5,3.8-3.1,3.8c-0.4,0-0.5-0.2-0.5-0.6
		c0-0.3,0.1-0.8,0.3-1.4l0.2-0.9l0.7-2.3c0.3-1.1,0.4-1.9,0.4-2.6c0-1.6-0.8-2.1-2-2.1c-1.3,0-2.1,0.5-2.7,1.2
		C32.5,38.4,32,38,30.8,38c-1,0-1.8,0.5-2.5,1.2c0.1-0.3,0.3-0.6,0.4-0.9c0.2-0.4,0.1-0.7-0.3-0.7l-1.3,0.2
		c-1.5,0.3-1.6,0.4-1.8,1.4L24,44c-1.1,2.3-2.3,3.7-3,3.7c-0.4,0-0.6-0.2-0.6-0.7c0-0.3,0.1-0.7,0.2-1.1l0.9-3
		c0.5-1.8,0.9-3.5,1.5-4.6c0.2-0.4,0.3-0.6,0.3-0.7c0-0.1-0.1-0.2-0.3-0.2l-2.3,0.4c-0.3,0.1-0.8,0.1-0.9,0.4l-0.1,0.3
		c-0.5-0.4-0.9-0.6-1.5-0.6c-2.3,0-4.5,2.9-5.5,5.7c0,0-0.1,0.1-0.2,0.2c-0.5,0.8-2.3,3.5-4.7,3.5c-1.6,0-2.3-1.2-2.3-3.9
		c0-2.4,0.6-5.3,1.6-7.6c1.1-2.6,2.5-4.1,4-4.1c0.5,0,0.7,0.2,0.7,0.7c0,0.9-0.5,1.6-1.4,2.7c-0.1,0.2-0.2,0.4-0.2,0.5l0.1,0.4
		c0,0.1,0.1,0.2,0.1,0.2c0.1,0,0.2,0.1,0.3,0c2.9-0.9,4.3-2.4,4.3-4.3c0-1.5-1.3-2.5-3.2-2.5c-2.7,0-5.3,1.7-7.2,4.9
		c-1.7,2.7-2.8,6.3-2.8,9.2c0,3.8,1.9,6,5.1,6c2.2,0,4-1.1,5.3-2.6c0.2,1.6,1,2.6,2.5,2.6c0.9,0,2.1-0.5,3-1.9
		c0.2,0.9,0.7,1.6,1.7,1.8c0.2,0,0.4,0.1,0.6,0.1c1.1,0,2.1-0.6,3-1.5l-0.2,0.7c0,0.1,0,0.3,0.2,0.3l2.1,0.3c0.2,0,0.3,0,0.3-0.2
		l1.7-5.7c0.1-0.2,0.1-0.5,0.2-0.8c0.5-1.5,1.2-3.2,2.2-3.2c0.8,0,0.1,1.8-0.3,3.4l-1.6,5.9c0,0.1,0,0.3,0.2,0.3l2.1,0.3
		c0.1,0,0.3-0.1,0.3-0.2l1.6-5.4c0.2-0.7,0.4-1.3,0.6-1.9c0.5-1.2,1-2.3,1.8-2.3c0.3,0,0.5,0.3,0.5,0.6c0,1.1-0.8,2.9-1.3,4.7
		l-0.1,0.2l-0.1,0.3c-0.2,0.6-0.3,1.2-0.3,1.7c0,1.5,0.8,2.4,2.4,2.4c1.1,0,2.1-0.5,2.9-1.4l-1.9,6.7c-0.1,0.4,0,0.5,0.3,0.4
		l2.4-0.4c0.1,0,0.3-0.1,0.3-0.3L43,41.3c0.4-0.9,0.9-1.4,1.5-1.4c0.4,0,0.6,0.3,0.6,1.4c0,1.9-1.4,6.9-3.1,7.4
		c-0.2,0-0.3,0.1-0.3,0.3l-0.2,0.7c0,0.1,0,0.2,0.2,0.2c3.4,0,6.1-0.5,8.2-2.3c0,0.1,0,0.1,0,0.2c0,1.2,0.5,2.1,2,2.1
		c1.5,0,2.6-0.8,3.4-1.9c0.2,1.1,0.9,1.9,2.3,1.9c1.1,0,2.2-0.7,3.1-1.7c0.5,1.3,1.6,1.7,3.3,1.7c3.8,0,4.2-2.5,4.2-4.2
		c0-0.5,0-1,0-1.2c0-1.2,0-2.5,0-4c0-1.3,0.1-2.8,0.7-4.3C68.8,35.9,68.8,35.3,68.4,35.5z M19.3,40l-1,3.8L18,44.3
		c-0.5,1.9-1.6,3.5-2.3,3.5c-0.2,0-0.5-0.3-0.5-0.9c0-2,1.7-7.3,3.4-7.3C18.9,39.6,19.2,39.7,19.3,40L19.3,40z M65.4,41.7
		c0,1-0.1,2-0.1,3c0,2.1-1.1,3.1-1.9,3.1c-0.4,0-0.7,0-1-0.6c0.8-0.5,1.4-1.6,1.4-2.4c0-0.6-0.2-1.1-0.5-1.3l0-0.1c0,0,0,0,0-0.1
		l2.9-5c0,0,0,0,0,0C65.6,39.6,65.4,40.6,65.4,41.7z"/>
	<path class="st0" d="M82.7,34.5c0-0.5,0-0.9-0.1-1.4h0c-0.1-0.5-0.3-0.9-0.5-1.3c-0.2-0.4-0.5-0.8-0.9-1.2
		c-0.2-0.2-0.4-0.3-0.6-0.5c0,0-0.1-0.1-0.1-0.1c0,0,0,0-0.1,0c-0.1,0-0.1-0.1-0.2-0.1l-0.1,0c-0.1,0-0.2-0.1-0.3-0.1
		c-0.6-0.2-1.3-0.4-2-0.4c-0.8,0-1.5,0.1-2.3,0.2c-0.2,0-0.3,0.1-0.5,0.1l-0.1,0l0,0c-0.2,0.1-0.3,0.1-0.5,0.2
		c-0.2,0.1-0.3,0.2-0.5,0.2l-0.1,0.1c-0.1,0.1-0.3,0.2-0.4,0.3c-0.3,0.2-0.6,0.4-0.8,0.7c-0.1,0.1-0.1,0.1-0.2,0.2l0,0
		c0,0-0.1,0.1-0.1,0.1l-0.1,0.2c0,0.1-0.1,0.1-0.1,0.2l0,0c-0.2,0.3-0.3,0.6-0.3,0.8c0,0.3,0,0.5,0.1,0.8l0.1,0.1l0.5-0.1l0-0.1
		c0.1-0.2,0.2-0.4,0.4-0.5l0,0c0,0,0.1-0.1,0.1-0.1c0,0,0.1,0,0.1-0.1l0,0c0,0,0.1,0,0.1-0.1l0,0c0,0,0.1-0.1,0.1-0.1l0,0
		c0.2-0.1,0.3-0.2,0.6-0.4c0.1,0,0.1-0.1,0.2-0.1c0,0,0.1,0,0.1,0l0.1,0c0.1,0,0.1-0.1,0.2-0.1l0,0c0.1,0,0.1,0,0.2-0.1
		c0,0,0.1,0,0.1,0c0,0,0.1,0,0.1,0c0.1,0,0.1,0,0.2,0l0,0c0.1,0,0.1,0,0.2,0c0,0,0.1,0,0.1,0l0.2,0c0,0,0.1,0,0.1,0l0,0
		c0.4,0,0.7,0,1.1,0c0.3,0.1,0.7,0.1,1,0.3l0.2,0.1c0,0,0.1,0,0.1,0.1c0,0,0.1,0,0.1,0.1c0.2,0.1,0.3,0.2,0.5,0.3
		c0.6,0.4,1.1,0.9,1.3,1.5c0.1,0.3,0.2,0.6,0.2,1c0,0.3,0,0.7-0.1,1c-0.1,0.3-0.2,0.7-0.3,1.1c-0.1,0.3-0.3,0.7-0.6,1.1l-0.2,0.3
		c0,0.1-0.1,0.1-0.1,0.2c0,0-0.1,0.1-0.1,0.1l-0.1,0.1l-0.4,0.4l-0.4,0.4L77.6,40c-0.1,0.1-0.1,0.1-0.2,0.2c0,0-0.1,0.1-0.1,0.1
		c-0.4,0.3-0.8,0.6-1.1,0.8c0.2-0.2,0.5-0.5,0.6-0.7c0.2-0.3,0.4-0.7,0.6-1c0.1-0.3,0.3-0.7,0.3-1.1c0.1-0.4,0.1-0.7,0.1-1.1
		c0-0.4-0.1-0.8-0.2-1.2c-0.1-0.4-0.3-0.8-0.5-1.2c0,0,0-0.1-0.1-0.1c0-0.1-0.1-0.1-0.1-0.2c0,0,0-0.1-0.1-0.1
		c0-0.1-0.1-0.2-0.2-0.2c-0.1-0.2-0.3-0.4-0.5-0.7l0,0l-0.5-0.1l0,0.2c-0.1,0.2-0.1,0.5-0.2,0.7c0,0.1-0.1,0.2-0.1,0.4l-0.2,1.1
		c-0.1,0.2-0.1,0.5-0.1,0.7c0,0.1,0,0.2-0.1,0.4l-0.2,1.1l-0.2,1.1c0,0.1,0,0.2-0.1,0.3c0,0.2-0.1,0.5-0.1,0.7l-0.1,0.9l0,0
		c0,0,0,0.1-0.1,0.2L74,41.4c-0.1,0.4-0.2,0.7-0.3,1.1l-0.2,0.6l-0.2,0.6l-0.2,0.6l-0.1,0.6c-0.1,0.2-0.1,0.5-0.2,0.7
		c0,0.1-0.1,0.2-0.1,0.4c-0.1,0.2-0.1,0.4-0.1,0.6c0,0.2,0,0.4,0,0.6c0,0.4,0.1,0.8,0.1,1.3c0.1,0.2,0.1,0.4,0.2,0.6
		c0.1,0.2,0.2,0.4,0.3,0.7l0,0.1l0.4,0.1l0.1-0.1c0.2-0.2,0.3-0.4,0.5-0.5c0.1-0.2,0.2-0.3,0.3-0.5c0.2-0.3,0.3-0.7,0.5-1.1
		c0.1-0.2,0.1-0.4,0.1-0.6c0-0.2,0-0.4,0-0.6c0-0.1,0-0.3,0-0.4c0-0.3,0-0.5,0-0.8l0-0.6l0-0.6l0-0.6l0-0.6c0-0.1,0-0.2,0-0.3l0-0.1
		c0.2-0.1,0.4-0.2,0.6-0.3l0.6-0.3c0.1,0,0.1-0.1,0.2-0.1c0.7-0.3,1.1-0.6,1.6-0.9c0,0,0.1-0.1,0.1-0.1c0.1-0.1,0.2-0.1,0.3-0.2
		l0.5-0.4l0.5-0.4l0.5-0.4l0.2-0.2c0.1-0.1,0.1-0.1,0.2-0.2l0.3-0.3c0.8-0.8,1.3-1.8,1.7-2.7C82.6,35.5,82.7,35,82.7,34.5z
		 M75.8,39.5L75.8,39.5l0-0.5l0.1-0.5c0.1-0.3,0.1-0.7,0.2-1c0.1-0.3,0.1-0.7,0.2-1l0.1-0.5l0.1-0.5l0.1,0c0.1,0.2,0.1,0.4,0.2,0.6
		c0,0.2,0.1,0.4,0.1,0.5c0,0.4,0,0.7-0.1,1c-0.1,0.3-0.2,0.7-0.3,1c-0.1,0.2-0.2,0.3-0.3,0.5C76.1,39.2,76,39.3,75.8,39.5z"/>
</g>
</svg>
